<svg width="168" height="156" viewBox="0 0 168 156" fill="none" xmlns="http://www.w3.org/2000/svg">
<g clip-path="url(#clip0_811_8775)">
<path fill-rule="evenodd" clip-rule="evenodd" d="M18.3002 70.9501C53.3002 55.7501 76.6002 45.6501 88.3002 40.7501C121.6 26.8501 128.6 24.4501 133.1 24.3501C134.1 24.3501 136.3 24.5501 137.8 25.7501C139 26.7501 139.3 28.0501 139.5 29.0501C139.7 30.0501 139.9 32.1501 139.7 33.7501C137.9 52.7501 130.1 98.8501 126.1 120.05C124.4 129.05 121.1 132.05 117.9 132.35C110.9 132.95 105.6 127.75 98.9002 123.35C88.3002 116.45 82.4002 112.15 72.1002 105.35C60.2002 97.5501 67.9002 93.2501 74.7002 86.2501C76.5002 84.4501 107.2 56.4501 107.8 53.9501C107.9 53.6501 107.9 52.4501 107.2 51.8501C106.5 51.2501 105.5 51.4501 104.7 51.6501C103.6 51.8501 86.8002 63.0501 54.1002 85.1501C49.3002 88.4501 45.0002 90.0501 41.1002 89.9501C36.8002 89.8501 28.6002 87.5501 22.4002 85.5501C14.9002 83.1501 8.90023 81.8501 9.40023 77.6501C9.70023 75.4501 12.7002 73.2501 18.3002 70.9501Z" fill="white"/>
<path fill-rule="evenodd" clip-rule="evenodd" d="M18.3002 70.9501C53.3002 55.7501 76.6002 45.6501 88.3002 40.7501C121.6 26.8501 128.6 24.4501 133.1 24.3501C134.1 24.3501 136.3 24.5501 137.8 25.7501C139 26.7501 139.3 28.0501 139.5 29.0501C139.7 30.0501 139.9 32.1501 139.7 33.7501C137.9 52.7501 130.1 98.8501 126.1 120.05C124.4 129.05 121.1 132.05 117.9 132.35C110.9 132.95 105.6 127.75 98.9002 123.35C88.3002 116.45 82.4002 112.15 72.1002 105.35C60.2002 97.5501 67.9002 93.2501 74.7002 86.2501C76.5002 84.4501 107.2 56.4501 107.8 53.9501C107.9 53.6501 107.9 52.4501 107.2 51.8501C106.5 51.2501 105.5 51.4501 104.7 51.6501C103.6 51.8501 86.8002 63.0501 54.1002 85.1501C49.3002 88.4501 45.0002 90.0501 41.1002 89.9501C36.8002 89.8501 28.6002 87.5501 22.4002 85.5501C14.9002 83.1501 8.90023 81.8501 9.40023 77.6501C9.70023 75.4501 12.7002 73.2501 18.3002 70.9501Z" fill="#25A4E2"/>
</g>
<defs>
<clipPath id="clip0_811_8775">
<rect width="168" height="156" fill="white"/>
</clipPath>
</defs>
</svg>
